<mxfile host="app.diagrams.net" modified="2023-04-01T21:06:25.712Z" agent="Mozilla/5.0 (Windows NT 10.0; Win64; x64) AppleWebKit/537.36 (KHTML, like Gecko) Chrome/111.0.0.0 Safari/537.36" etag="JBtBCR7wySDKzZMrLaNi" version="21.1.2" type="github">
  <diagram id="2f404044-711c-603c-8f00-f6bb4c023d3c" name="Page-1">
    <mxGraphModel dx="1259" dy="712" grid="1" gridSize="10" guides="1" tooltips="1" connect="1" arrows="1" fold="1" page="1" pageScale="1" pageWidth="1169" pageHeight="827" background="none" math="0" shadow="0">
      <root>
        <mxCell id="0" />
        <mxCell id="1" parent="0" />
        <mxCell id="y1FoDrVFRKeryTZuVXxP-73" value="" style="html=1;outlineConnect=0;whiteSpace=wrap;fillColor=#dae8fc;shape=mxgraph.archimate.application;appType=node;strokeColor=#6c8ebf;" vertex="1" parent="1">
          <mxGeometry x="640" y="240" width="250" height="200" as="geometry" />
        </mxCell>
        <mxCell id="y1FoDrVFRKeryTZuVXxP-95" style="edgeStyle=orthogonalEdgeStyle;rounded=0;orthogonalLoop=1;jettySize=auto;html=1;startArrow=classic;startFill=1;" edge="1" parent="1" source="y1FoDrVFRKeryTZuVXxP-74">
          <mxGeometry relative="1" as="geometry">
            <mxPoint x="640" y="285" as="targetPoint" />
            <Array as="points">
              <mxPoint x="640" y="285" />
            </Array>
          </mxGeometry>
        </mxCell>
        <mxCell id="y1FoDrVFRKeryTZuVXxP-99" value="Socket" style="edgeLabel;html=1;align=center;verticalAlign=middle;resizable=0;points=[];" vertex="1" connectable="0" parent="y1FoDrVFRKeryTZuVXxP-95">
          <mxGeometry x="0.3338" y="-2" relative="1" as="geometry">
            <mxPoint x="-33" y="-2" as="offset" />
          </mxGeometry>
        </mxCell>
        <mxCell id="y1FoDrVFRKeryTZuVXxP-74" value="" style="html=1;outlineConnect=0;whiteSpace=wrap;fillColor=#ffe6cc;shape=mxgraph.archimate.application;appType=node;strokeColor=#d79b00;" vertex="1" parent="1">
          <mxGeometry x="190" y="240" width="250" height="90" as="geometry" />
        </mxCell>
        <mxCell id="y1FoDrVFRKeryTZuVXxP-75" value="Ordinateur de l&#39;utilisateur 1" style="text;html=1;strokeColor=none;fillColor=none;align=center;verticalAlign=middle;whiteSpace=wrap;rounded=0;" vertex="1" parent="1">
          <mxGeometry x="237.5" y="250" width="155" height="30" as="geometry" />
        </mxCell>
        <mxCell id="y1FoDrVFRKeryTZuVXxP-76" value="Serveur" style="text;html=1;strokeColor=none;fillColor=none;align=center;verticalAlign=middle;whiteSpace=wrap;rounded=0;" vertex="1" parent="1">
          <mxGeometry x="687.5" y="240" width="155" height="30" as="geometry" />
        </mxCell>
        <mxCell id="y1FoDrVFRKeryTZuVXxP-77" value="Navigateur web&amp;nbsp;" style="html=1;outlineConnect=0;whiteSpace=wrap;fillColor=#f8cecc;shape=mxgraph.archimate.application;appType=comp;strokeColor=#b85450;" vertex="1" parent="1">
          <mxGeometry x="220" y="280" width="190" height="40" as="geometry" />
        </mxCell>
        <mxCell id="y1FoDrVFRKeryTZuVXxP-94" style="edgeStyle=orthogonalEdgeStyle;rounded=0;orthogonalLoop=1;jettySize=auto;html=1;endArrow=none;endFill=0;" edge="1" parent="1" source="y1FoDrVFRKeryTZuVXxP-81" target="y1FoDrVFRKeryTZuVXxP-93">
          <mxGeometry relative="1" as="geometry" />
        </mxCell>
        <mxCell id="y1FoDrVFRKeryTZuVXxP-81" value="Serveur Web&amp;nbsp;&lt;br&gt;(Node.js : Express)&lt;br&gt;" style="html=1;outlineConnect=0;whiteSpace=wrap;fillColor=#e1d5e7;shape=mxgraph.archimate.application;appType=comp;strokeColor=#9673a6;" vertex="1" parent="1">
          <mxGeometry x="670" y="280" width="190" height="60" as="geometry" />
        </mxCell>
        <mxCell id="y1FoDrVFRKeryTZuVXxP-97" style="edgeStyle=orthogonalEdgeStyle;rounded=0;orthogonalLoop=1;jettySize=auto;html=1;startArrow=classic;startFill=1;" edge="1" parent="1" source="y1FoDrVFRKeryTZuVXxP-84">
          <mxGeometry relative="1" as="geometry">
            <mxPoint x="640" y="395" as="targetPoint" />
            <Array as="points">
              <mxPoint x="640" y="395" />
            </Array>
          </mxGeometry>
        </mxCell>
        <mxCell id="y1FoDrVFRKeryTZuVXxP-98" value="Socket" style="edgeLabel;html=1;align=center;verticalAlign=middle;resizable=0;points=[];" vertex="1" connectable="0" parent="y1FoDrVFRKeryTZuVXxP-97">
          <mxGeometry x="0.0938" y="2" relative="1" as="geometry">
            <mxPoint x="-9" y="2" as="offset" />
          </mxGeometry>
        </mxCell>
        <mxCell id="y1FoDrVFRKeryTZuVXxP-84" value="" style="html=1;outlineConnect=0;whiteSpace=wrap;fillColor=#ffe6cc;shape=mxgraph.archimate.application;appType=node;strokeColor=#d79b00;" vertex="1" parent="1">
          <mxGeometry x="190" y="350" width="250" height="90" as="geometry" />
        </mxCell>
        <mxCell id="y1FoDrVFRKeryTZuVXxP-85" value="Ordinateur de l&#39;utilisateur 2&amp;nbsp;" style="text;html=1;strokeColor=none;fillColor=none;align=center;verticalAlign=middle;whiteSpace=wrap;rounded=0;" vertex="1" parent="1">
          <mxGeometry x="237.5" y="350" width="155" height="30" as="geometry" />
        </mxCell>
        <mxCell id="y1FoDrVFRKeryTZuVXxP-86" value="Navigateur web&amp;nbsp;" style="html=1;outlineConnect=0;whiteSpace=wrap;fillColor=#f8cecc;shape=mxgraph.archimate.application;appType=comp;strokeColor=#b85450;" vertex="1" parent="1">
          <mxGeometry x="220" y="380" width="190" height="40" as="geometry" />
        </mxCell>
        <mxCell id="y1FoDrVFRKeryTZuVXxP-93" value="Serveur de socket&lt;br&gt;(Socket.IO)" style="html=1;outlineConnect=0;whiteSpace=wrap;fillColor=#d5e8d4;shape=mxgraph.archimate.application;appType=comp;strokeColor=#82b366;" vertex="1" parent="1">
          <mxGeometry x="670" y="360" width="190" height="60" as="geometry" />
        </mxCell>
      </root>
    </mxGraphModel>
  </diagram>
</mxfile>
